<svg xmlns="http://www.w3.org/2000/svg" width="206" height="206" viewBox="0 0 206 206">
  <g id="Grupo_24" data-name="Grupo 24" transform="translate(-277 -860)">
    <circle id="Elipse_4" data-name="Elipse 4" cx="103" cy="103" r="103" transform="translate(277 860)" fill="#03a63c"/>
    <g id="leaf_3_" data-name="leaf (3)" transform="translate(320.551 906)">
      <path id="Trazado_60" data-name="Trazado 60" d="M115.057,48.894C102.74,23.731,59.83,6.779,13.477,10.089c19.733,16.82,19.6,45.691,30.461,68.073,16.025,31.255,46.353,27.812,62.908,11.522C117.441,79.487,122.473,64.124,115.057,48.894Z" transform="translate(-6.707 -6.473)" fill="#77bc4a"/>
      <path id="Trazado_61" data-name="Trazado 61" d="M115.236,109.832a168.283,168.283,0,0,0-11.125-25.958c.132-.132.265-.4.53-.53,9.933-11.125,14.171-26.885,6.622-42.38C104.641,27.588,90.073,16.463,71,9.179,52.593,2.16,29.946-1.284,6.5.438A3.248,3.248,0,0,0,3.459,3.881,4.109,4.109,0,0,0,4.651,6.265c11.787,10.2,16.157,25.56,20.528,40.791,2.649,9.006,5.165,18.012,9.138,26.223,0,.132.132.132.132.265,9.933,19.2,25.163,26.09,39.6,25.163a43.68,43.68,0,0,0,16.82-4.635,42.949,42.949,0,0,0,8.344-5.43,167.812,167.812,0,0,1,9.8,23.441,3.1,3.1,0,0,0,4.106,1.987A3.256,3.256,0,0,0,115.236,109.832ZM87.954,88.244a36.115,36.115,0,0,1-14.3,3.973c-12.184.795-24.9-5.165-33.374-21.72v-.132c-3.841-7.681-6.225-16.422-8.608-25.031C27.695,31.428,23.854,17.522,14.451,6.663c19.866-.53,38.8,2.781,54.432,8.741,17.482,6.622,30.858,16.687,36.685,28.607,5.96,12.184,2.914,24.766-4.635,33.9A145.389,145.389,0,0,0,89.676,61.359,139.624,139.624,0,0,0,47.3,25.2a3.2,3.2,0,1,0-3.179,5.562A135.407,135.407,0,0,1,84.511,65.332,148.539,148.539,0,0,1,96.165,82.814,58.772,58.772,0,0,1,87.954,88.244Z" transform="translate(0)" fill="#023600"/>
    </g>
  </g>
</svg>
