<svg xmlns="http://www.w3.org/2000/svg" width="206" height="206" viewBox="0 0 206 206">
  <g id="Grupo_24" data-name="Grupo 24" transform="translate(-537 -860)">
    <circle id="Elipse_5" data-name="Elipse 5" cx="103" cy="103" r="103" transform="translate(537 860)" fill="#03a63c"/>
    <g id="Grupo_6" data-name="Grupo 6" transform="translate(1042 -147)">
      <path id="Trazado_63" data-name="Trazado 63" d="M208.27,148.135A60.135,60.135,0,1,1,148.135,88,60.134,60.134,0,0,1,208.27,148.135Zm0,0" transform="translate(-549.835 962.165)" fill="#f2cb05"/>
      <path id="Trazado_64" data-name="Trazado 64" d="M215.392,231.975a3.143,3.143,0,0,0-3.44,2.848c-.117,1.332-3.265,31.967-34.827,31.967-31.441,0-34.7-30.641-34.815-31.944a3.178,3.178,0,1,0-6.33.581c.048.377,3.871,37.693,41.145,37.693s41.1-37.315,41.145-37.693a3.163,3.163,0,0,0-2.878-3.452Zm0,0" transform="translate(-578.825 875.16)" fill="#f98c96"/>
      <path id="Trazado_65" data-name="Trazado 65" d="M194.99,185.495A9.495,9.495,0,1,1,185.495,176,9.5,9.5,0,0,1,194.99,185.495Zm0,0" transform="translate(-603.02 908.98)"/>
      <path id="Trazado_66" data-name="Trazado 66" d="M274.99,185.495A9.495,9.495,0,1,1,265.495,176,9.5,9.5,0,0,1,274.99,185.495Zm0,0" transform="translate(-651.37 908.98)"/>
      <path id="Trazado_72" data-name="Trazado 72" d="M143.3,80a63.3,63.3,0,1,0,63.3,63.3A63.3,63.3,0,0,0,143.3,80Zm0,120.27a56.97,56.97,0,1,1,56.97-56.97A56.971,56.971,0,0,1,143.3,200.27Zm0,0" transform="translate(-545 967)"/>
      <path id="Trazado_73" data-name="Trazado 73" d="M215.392,231.975a3.143,3.143,0,0,0-3.44,2.848c-.117,1.332-3.265,31.967-34.827,31.967-31.441,0-34.7-30.641-34.815-31.944a3.178,3.178,0,1,0-6.33.581c.048.377,3.871,37.693,41.145,37.693s41.1-37.315,41.145-37.693a3.163,3.163,0,0,0-2.878-3.452Zm0,0" transform="translate(-578.825 875.16)"/>
      <path id="Trazado_74" data-name="Trazado 74" d="M180.66,193.32A12.66,12.66,0,1,0,168,180.66,12.661,12.661,0,0,0,180.66,193.32Zm0-18.99a6.33,6.33,0,1,1-6.33,6.33A6.33,6.33,0,0,1,180.66,174.33Zm0,0" transform="translate(-598.185 913.815)"/>
      <path id="Trazado_75" data-name="Trazado 75" d="M260.66,193.32A12.66,12.66,0,1,0,248,180.66,12.661,12.661,0,0,0,260.66,193.32Zm0-18.99a6.33,6.33,0,1,1-6.33,6.33A6.33,6.33,0,0,1,260.66,174.33Zm0,0" transform="translate(-646.535 913.815)"/>
    </g>
  </g>
</svg>
