<svg xmlns="http://www.w3.org/2000/svg" width="54.6" height="54.6" viewBox="0 0 54.6 54.6">
  <g id="Grupo_16" data-name="Grupo 16" transform="translate(-81.5)">
    <g id="Grupo_14" data-name="Grupo 14">
      <path id="Trazado_3104" data-name="Trazado 3104" d="M108.8,54.6a27.3,27.3,0,1,1,27.3-27.3A27.335,27.335,0,0,1,108.8,54.6Z" fill="#049dd9"/>
    </g>
    <g id="Grupo_15" data-name="Grupo 15">
      <path id="Trazado_3105" data-name="Trazado 3105" d="M104.5,27.4V43.2a.43.43,0,0,0,.4.4h5.9a.43.43,0,0,0,.4-.4v-16h4.3a.43.43,0,0,0,.4-.4l.4-4.8a.43.43,0,0,0-.4-.4h-4.7V18.2a1.538,1.538,0,0,1,1.5-1.5H116a.43.43,0,0,0,.4-.4V11.5a.43.43,0,0,0-.4-.4h-5.5a5.848,5.848,0,0,0-5.9,5.9v4.7h-2.9a.43.43,0,0,0-.4.4v4.8a.43.43,0,0,0,.4.4h2.9v.1Z" fill="#fff" fill-rule="evenodd"/>
    </g>
  </g>
</svg>
