<svg xmlns="http://www.w3.org/2000/svg" width="340" height="47" viewBox="0 0 340 47">
  <g id="Grupo_20" data-name="Grupo 20" transform="translate(-34 -20)">
    <g id="paw" transform="translate(34 20)">
      <path id="Trazado_54" data-name="Trazado 54" d="M128.113,12.385a4.548,4.548,0,0,0,3.6-1.939,7.111,7.111,0,0,0,1.337-4.254,7.11,7.11,0,0,0-1.337-4.253,4.312,4.312,0,0,0-7.2,0,7.111,7.111,0,0,0-1.337,4.253,7.111,7.111,0,0,0,1.337,4.254A4.548,4.548,0,0,0,128.113,12.385Zm0,0" transform="translate(-113.553)" fill="#fff"/>
      <path id="Trazado_55" data-name="Trazado 55" d="M267.359,12.385a4.547,4.547,0,0,0,3.6-1.939A7.109,7.109,0,0,0,272.3,6.192a7.109,7.109,0,0,0-1.337-4.253,4.311,4.311,0,0,0-7.2,0,7.111,7.111,0,0,0-1.337,4.253,7.111,7.111,0,0,0,1.337,4.254A4.548,4.548,0,0,0,267.359,12.385Zm0,0" transform="translate(-241.92)" fill="#fff"/>
      <path id="Trazado_56" data-name="Trazado 56" d="M409.13,71.315a3.787,3.787,0,0,0-6.313,0,6.387,6.387,0,0,0,0,7.323,3.787,3.787,0,0,0,6.313,0,6.388,6.388,0,0,0,0-7.323Zm0,0" transform="translate(-370.284 -64.182)" fill="#fff"/>
      <path id="Trazado_57" data-name="Trazado 57" d="M7.466,78.639a6.39,6.39,0,0,0,0-7.323A3.983,3.983,0,0,0,4.31,69.621a3.982,3.982,0,0,0-3.156,1.694,6.388,6.388,0,0,0,0,7.323A3.983,3.983,0,0,0,4.31,80.333a3.983,3.983,0,0,0,3.156-1.694Zm0,0" transform="translate(0 -64.182)" fill="#fff"/>
      <path id="Trazado_58" data-name="Trazado 58" d="M55.639,200.973a16.979,16.979,0,0,0-16.98,16.98,7.322,7.322,0,0,0,7.319,7.319,17.136,17.136,0,0,0,5.163-.927,15.035,15.035,0,0,1,4.5-.83,15.033,15.033,0,0,1,4.5.83,17.134,17.134,0,0,0,5.163.927,7.32,7.32,0,0,0,7.319-7.319,16.979,16.979,0,0,0-16.979-16.98Zm0,0" transform="translate(-35.639 -185.272)" fill="#fff"/>
      <path id="Trazado_59" data-name="Trazado 59" d="M268.007,205.946A16.868,16.868,0,0,0,256,200.973v22.543a15.033,15.033,0,0,1,4.5.83,17.134,17.134,0,0,0,5.163.927,7.32,7.32,0,0,0,7.319-7.319,16.868,16.868,0,0,0-4.973-12.007Zm0,0" transform="translate(-236 -185.272)" fill="#fff"/>
    </g>
    <text id="PAW_s_SHOP" data-name="PAW&apos;s SHOP" transform="translate(93 56)" fill="#fff" font-size="47" font-family="Helvetica"><tspan x="0" y="0">PAW&apos;s SHOP</tspan></text>
  </g>
</svg>
