<svg xmlns="http://www.w3.org/2000/svg" width="274" height="122" viewBox="0 0 274 122">
  <g id="Grupo_25" data-name="Grupo 25" transform="translate(-503 -1557)">
    <rect id="Rectángulo_38" data-name="Rectángulo 38" width="274" height="122" transform="translate(503 1557)" fill="none"/>
    <g id="doodle-102" transform="translate(566.103 1563.178)">
      <path id="Trazado_333" data-name="Trazado 333" d="M116.875,51.6c-1.175-1.622-3.248-2.341-4.087-4.234a.837.837,0,0,1,.928-1.216,27.442,27.442,0,0,1,5.147,1.61,51.752,51.752,0,0,0-18.037-17.985.809.809,0,0,1,.405-1.5l5.481.309a59.359,59.359,0,0,0-15.532-6.594A30.346,30.346,0,0,0,80.67,20.919a47.964,47.964,0,0,0-8.481,1.7q2.165.863,4.338,1.743a.755.755,0,0,1-.4,1.455,20.34,20.34,0,0,0-15.342,4.154l1.2-.421c.877-.309,1.237,1.069.382,1.38l-.486.176c-2.3,2.018-4.64,3.979-6.939,6a19.632,19.632,0,0,0-4.114,4.415l2.01-1.361c.705-.478,1.321.532.847,1.1-3.939,4.7-7.98,9.681-9.661,15.645a21.3,21.3,0,0,1,2.484-1.839c.643-.407,1.293.377.984.985-2.9,5.7-5.748,12.171-4.439,18.575A19.769,19.769,0,0,1,45.21,70.3a.754.754,0,0,1,1.37.577c-.849,5.741-.447,11.93,2.784,16.8a18.521,18.521,0,0,1,.554-4.64.712.712,0,0,1,1.392.189,15.67,15.67,0,0,0,3.248,9.1c2.011,2.68,4.683,4.519,7.351,6.463a.705.705,0,0,1-.128,1.237,17.066,17.066,0,0,0,2.465.636,17.965,17.965,0,0,1,5.2,1.574.829.829,0,0,1,.173,1.276,13.627,13.627,0,0,0,4.94.68c2.88-.139,5.615-1.211,8.515-1.211a.86.86,0,0,1,.817,1.07q-.169,1-.336,2.01A49.56,49.56,0,0,0,97.628,100.8c.5-.281,1.327.063,1.257.721,0,.032-.008.067-.011.1a51.633,51.633,0,0,0,8.2-7.088.839.839,0,0,1,1.392.807c-.247.688-.492,1.376-.739,2.065A40.76,40.76,0,0,0,114.8,83.99c.223-.732,1.5-.877,1.633,0a28.653,28.653,0,0,1,.288,3.093,34.42,34.42,0,0,0-.227-18.266.853.853,0,0,1,1.237-.95,8.97,8.97,0,0,1,3.566,3.048,51.12,51.12,0,0,0-1.624-12.038C119.017,56.463,118.367,53.655,116.875,51.6ZM54.313,61.8A38.571,38.571,0,0,1,52.148,65.1a.328.328,0,0,1-.592-.076,9.423,9.423,0,0,1,1.378-7.733.1.1,0,0,1,.165.1,10.393,10.393,0,0,0-1.083,6.676A7.819,7.819,0,0,1,54.1,61.588c.136-.093.268.088.209.218ZM76.065,34.416a8.125,8.125,0,0,1,8.129-2.884c.138.028.107.263-.032.244a8.467,8.467,0,0,0-6.755,2.179,10.18,10.18,0,0,1,4.3-.5c.169.026.145.277,0,.319-1.757.493-3.557.609-5.314,1.2-.345.118-.51-.319-.323-.552ZM57.582,44.081a8.583,8.583,0,0,1,4.238-4.522.1.1,0,0,1,.1.176,10.362,10.362,0,0,0-3.457,3.681,8.608,8.608,0,0,1,2.357-1.3.13.13,0,0,1,.125.217,25.946,25.946,0,0,1-3.019,2.1C57.7,44.6,57.5,44.287,57.582,44.081Zm5.076,44.769a.3.3,0,0,1-.5.206,8.62,8.62,0,0,1-3.4-5.387.127.127,0,0,1,.234-.063A12.285,12.285,0,0,0,62.1,88.274a21.454,21.454,0,0,0-.269-3.531c-.039-.3.408-.309.5-.067a9.548,9.548,0,0,1,.326,4.174Zm28.4,7c-.544,1.2-2.224,1.587-3.4,1.406-.19-.029-.22-.255-.155-.394A13.074,13.074,0,0,1,89.218,93.9c.085-.11.238.031.182.142-.452.894-.888,1.8-1.274,2.72a3.075,3.075,0,0,0,1.335-.249,6.008,6.008,0,0,0,1.274-.917.212.212,0,0,1,.326.255ZM72.364,88.6A25.27,25.27,0,0,1,58.136,68.472a25.379,25.379,0,0,1,2.73-17c2.873-5.326,8.637-8.13,14.228-9.822a23.549,23.549,0,0,1,16.107.515c4.64,1.949,9.163,5.119,11.149,9.89,4.057,9.743,4.14,22.171-2.658,30.723C93.2,90.943,81.62,92.916,72.364,88.6Zm36.962-9.3a10.865,10.865,0,0,1-4.035,5.393.325.325,0,0,1-.475-.192,4.776,4.776,0,0,1,.36-2.713,14.551,14.551,0,0,0,.685-4.159.2.2,0,0,1,.4,0,15.689,15.689,0,0,1-.175,2.838,18.059,18.059,0,0,0-.718,3.328,16.576,16.576,0,0,0,3.514-4.683.243.243,0,0,1,.438.187Zm.608-27.253a17.338,17.338,0,0,0-4.021-3.368.252.252,0,0,1,.193-.464,6.816,6.816,0,0,1,3.155,1.97,14.938,14.938,0,0,0-3.531-4.98c-.077-.071.028-.212.113-.155a13.282,13.282,0,0,1,4.715,6.735c.128.4-.413.547-.629.261Z" transform="translate(-8.313 -8.452)" fill="#8dc63f"/>
      <path id="Trazado_334" data-name="Trazado 334" d="M194.908,181.816a36.218,36.218,0,0,0-1.137-7.733,23.025,23.025,0,0,0-2.573-6.8c-2.474-3.866-7.525-6.574-11.837-7.762-5.1-1.4-10.4-.464-15.233,1.461a26.327,26.327,0,0,0-6.831,3.7,15.617,15.617,0,0,0-4.216,5.6c-.247.52-.475,1.05-.688,1.587a.541.541,0,0,1,.026.323,45.593,45.593,0,0,0-1.251,5.977,45.7,45.7,0,0,0,0,5.674c1.083,9.525,6.959,18.094,16.5,21.007a20.713,20.713,0,0,0,24.012-9.177A26.014,26.014,0,0,0,194.908,181.816Zm-10.226,15.711c-4.2,5.527-11.6,7.346-18.068,5.2a21.061,21.061,0,0,1-9.032-5.974,12,12,0,0,1-2.716-4.629,18.137,18.137,0,0,1-.464-5.285,21.517,21.517,0,0,1,1.41-8.695,11.225,11.225,0,0,1,3.209-4.867,16.591,16.591,0,0,1,5.714-2.736c6.959-2.062,14.943-.278,19.426,5.685,2.382,3.169,3.051,7.071,3.248,10.946A15.249,15.249,0,0,1,184.682,197.527Z" transform="translate(-99.902 -125.137)" fill="#88e0ff"/>
      <path id="Trazado_335" data-name="Trazado 335" d="M207.174,243.909c-4.794-4.862-12.218-5.486-18.382-3.127a9.407,9.407,0,0,0-4.723,3.4,15.421,15.421,0,0,0-1.856,4.282,21.282,21.282,0,0,0-.823,5.79.859.859,0,0,1,.031.187,18.422,18.422,0,0,0,.844,6.031,12.946,12.946,0,0,0,3.477,4.64,18.855,18.855,0,0,0,9.421,4.763c5.809,1.016,12.1-1.629,14.881-6.967,1.632-3.138,1.482-6.868,1.05-10.281A14.614,14.614,0,0,0,207.174,243.909Zm.792,17.9c-1.138,2.77-4.066,4.426-6.916,2.861a4.915,4.915,0,0,1-1.709-1.568.621.621,0,0,1-.08.019c-3.093.472-6.882-.051-9.216-2.29a9.109,9.109,0,0,1-2.253-3.675,8.234,8.234,0,0,1-.537-3.337,7.038,7.038,0,0,1-3-2.187c-2.629-3.4.1-7.057,3.037-9.173a5.221,5.221,0,0,1,5.336-.773c1.587.821,2.7,2.714,3.4,4.33,2.487-.339,5.558.019,7.479,1.65,1.986,1.687,3.351,5.1,2.629,7.666,0,.011-.008.02-.011.031a8.383,8.383,0,0,1,1.808,1.74C208.98,258.545,208.6,260.26,207.966,261.807Z" transform="translate(-125.528 -193.272)" fill="#00aeef"/>
      <path id="Trazado_336" data-name="Trazado 336" d="M305.913,343.813c-1.612-.448-3.375,1.721-3.774,3.217a3.745,3.745,0,0,0,2.379,4.6c2.3.628,3.758-1.359,4.233-3.359C309.264,346.111,307.357,345.048,305.913,343.813Z" transform="translate(-227.493 -281.442)" fill="#fff"/>
      <path id="Trazado_337" data-name="Trazado 337" d="M208.662,261.484a4.985,4.985,0,0,0-3.761,1.826c-.928.928-2.3,2.184-2.425,3.569a4,4,0,0,0,1.712,3.314,6.486,6.486,0,0,0,5.359,1.083.75.75,0,0,1,.535-.309c3.608-.328,3.011-4.426,1.718-6.684C211.087,263.031,210.227,261.609,208.662,261.484Z" transform="translate(-143.343 -211.888)" fill="#fff"/>
      <path id="Trazado_338" data-name="Trazado 338" d="M110.332,42.838a8.764,8.764,0,0,0-2.122-2.355c-.212-.167-.424-.328-.633-.492a26.547,26.547,0,0,1,4.568,1.955.851.851,0,0,0,1.154-1.154A52.326,52.326,0,0,0,95.926,21.615q2.765.162,5.529.322c.86.049,1.033-1.095.411-1.514a59.89,59.89,0,0,0-19.06-8.548,30.651,30.651,0,0,0-10.456-.928A68.028,68.028,0,0,0,61.493,13.38a.718.718,0,0,0,0,1.37q1.174.493,2.349.984a21.806,21.806,0,0,0-15,7.13c-.456.509-.025,1.508.721,1.237l.6-.217c-1.727,1.378-3.4,2.813-5.065,4.279C43.016,30,41,32.006,40.3,34.774a.708.708,0,0,0,1.028.792c-3.5,4.434-6.588,9.214-7.521,14.865-.108.648.667,1.273,1.2.7a20.305,20.305,0,0,1,1.6-1.547c-2.921,6.16-5.161,12.969-2.556,19.641.246.631,1.328.826,1.485,0a18.792,18.792,0,0,1,.809-2.965c-.289,5.806,1,11.816,5.119,16.084a.807.807,0,0,0,1.339-.773q-.074-.422-.122-.841a20.772,20.772,0,0,0,7.091,8.9.815.815,0,0,0-.124.963c1.7,2.607,4.674,2.88,7.477,3.52a.674.674,0,0,0,.06.721,2.8,2.8,0,0,0,1.845,1.126,15.527,15.527,0,0,0,6.316,1.492c2.861.053,5.585-.959,8.412-1.172l-.367,2.185A.86.86,0,0,0,74.428,99.5,51.148,51.148,0,0,0,88.743,94.56l-.032.309a.841.841,0,0,0,1.257.722A53.531,53.531,0,0,0,97.3,89.87c-.331.914-.659,1.83-.993,2.742-.3.812.844,1.392,1.406.818a42.53,42.53,0,0,0,8.995-13.6,25.5,25.5,0,0,1-.544,4.906c-.193.919,1.16,1.632,1.608.679a36.124,36.124,0,0,0,2.552-23.374,7.332,7.332,0,0,1,2.543,4.771.843.843,0,0,0,1.686,0,53.289,53.289,0,0,0-1.607-16.822A27.135,27.135,0,0,0,110.332,42.838ZM109.4,59.421a.854.854,0,0,0-1.237.95,34.42,34.42,0,0,1,.226,18.266,28.653,28.653,0,0,0-.288-3.093c-.131-.877-1.41-.732-1.633,0A40.76,40.76,0,0,1,99.39,88.96c.247-.688.492-1.376.739-2.065.285-.789-.838-1.392-1.392-.807a51.633,51.633,0,0,1-8.2,7.088.309.309,0,0,1,.011-.1c.07-.657-.753-1-1.257-.721a49.56,49.56,0,0,1-14.073,5.258q.167-1,.336-2.01a.86.86,0,0,0-.817-1.07c-2.9,0-5.636,1.072-8.515,1.211a13.626,13.626,0,0,1-4.94-.68.833.833,0,0,0-.173-1.276,17.907,17.907,0,0,0-5.2-1.574,17.069,17.069,0,0,1-2.451-.636.705.705,0,0,0,.128-1.237c-2.668-1.944-5.346-3.783-7.351-6.463a15.712,15.712,0,0,1-3.248-9.1.712.712,0,0,0-1.392-.189,18.521,18.521,0,0,0-.554,4.64c-3.226-4.87-3.628-11.059-2.784-16.8a.754.754,0,0,0-1.37-.577,19.769,19.769,0,0,0-2.151,4.33c-1.31-6.4,1.539-12.872,4.439-18.575.309-.608-.34-1.392-.984-.985A21.3,21.3,0,0,0,35.71,48.46C37.4,42.49,41.439,37.51,45.378,32.81c.473-.566-.142-1.576-.847-1.1l-2.01,1.361a19.64,19.64,0,0,1,4.114-4.415c2.3-2.021,4.64-3.982,6.939-6l.486-.176c.855-.309.495-1.684-.382-1.38l-1.2.419a20.31,20.31,0,0,1,15.335-4.149.755.755,0,0,0,.4-1.455q-2.165-.883-4.338-1.743a46.957,46.957,0,0,1,8.481-1.7A30.272,30.272,0,0,1,82.86,13.543,59.359,59.359,0,0,1,98.4,20.138l-5.481-.309a.809.809,0,0,0-.405,1.5,51.752,51.752,0,0,1,18.037,17.98,27.442,27.442,0,0,0-5.139-1.616.834.834,0,0,0-.928,1.216c.846,1.893,2.912,2.612,4.088,4.234,1.492,2.057,2.147,4.865,2.784,7.286a51.12,51.12,0,0,1,1.624,12.038,8.97,8.97,0,0,0-3.582-3.042Z" fill="#231f20"/>
      <path id="Trazado_339" data-name="Trazado 339" d="M215.961,265.067c0-.011.008-.02.011-.031.722-2.57-.643-5.979-2.629-7.666-1.921-1.632-4.992-1.989-7.479-1.65-.7-1.613-1.82-3.506-3.4-4.33a5.224,5.224,0,0,0-5.336.773c-2.938,2.116-5.674,5.773-3.037,9.173a7.038,7.038,0,0,0,3,2.187,8.234,8.234,0,0,0,.537,3.337,9.11,9.11,0,0,0,2.253,3.675c2.334,2.239,6.121,2.762,9.216,2.29a.625.625,0,0,0,.08-.019,4.915,4.915,0,0,0,1.709,1.568c2.85,1.565,5.778-.091,6.916-2.861.633-1.547,1.015-3.248-.037-4.7A8.383,8.383,0,0,0,215.961,265.067Zm-13.86-3a.75.75,0,0,0-.535.309,6.442,6.442,0,0,1-5.359-1.083,3.993,3.993,0,0,1-1.712-3.314c.128-1.392,1.492-2.637,2.425-3.569a4.985,4.985,0,0,1,3.761-1.826c1.565.125,2.425,1.547,3.138,2.784C205.112,257.636,205.709,261.734,202.1,262.062Zm14.519,7.762c-.475,2-1.935,3.987-4.233,3.359a3.746,3.746,0,0,1-2.379-4.6c.4-1.5,2.165-3.665,3.774-3.217C215.227,266.6,217.134,267.659,216.62,269.824Z" transform="translate(-135.363 -202.99)" fill="#231f20"/>
      <path id="Trazado_340" data-name="Trazado 340" d="M202.269,235.628c-4.485-5.963-12.467-7.747-19.426-5.685a16.591,16.591,0,0,0-5.714,2.736,11.225,11.225,0,0,0-3.209,4.867,21.517,21.517,0,0,0-1.41,8.695,17.727,17.727,0,0,0,.464,5.285,12,12,0,0,0,2.716,4.629,21.061,21.061,0,0,0,9.032,5.974c6.468,2.147,13.872.328,18.068-5.2,2.292-3.02,2.928-6.63,2.736-10.354C205.321,242.7,204.651,238.8,202.269,235.628Zm.246,18.538c-2.776,5.339-9.072,7.983-14.881,6.967a18.892,18.892,0,0,1-9.421-4.763,12.858,12.858,0,0,1-3.477-4.64,18.44,18.44,0,0,1-.844-6.031.859.859,0,0,0-.031-.187,21.282,21.282,0,0,1,.823-5.79,15.606,15.606,0,0,1,1.856-4.282,9.434,9.434,0,0,1,4.723-3.4c6.166-2.358,13.588-1.735,18.382,3.127a14.592,14.592,0,0,1,3.917,8.71C204,247.3,204.147,251.029,202.515,254.167Z" transform="translate(-118.002 -184.538)" fill="#231f20"/>
      <path id="Trazado_341" data-name="Trazado 341" d="M183.914,159.486c-1.986-4.771-6.5-7.941-11.149-9.89a23.517,23.517,0,0,0-16.109-.515c-5.586,1.692-11.35,4.5-14.228,9.822a25.393,25.393,0,0,0-2.73,17.012,25.254,25.254,0,0,0,14.228,20.124c9.256,4.33,20.836,2.348,27.33-5.821C188.051,181.657,187.971,169.233,183.914,159.486Zm-26.265,36.121c-9.541-2.918-15.421-11.481-16.5-21.007a43.415,43.415,0,0,1,0-5.674,45.489,45.489,0,0,1,1.251-5.977.541.541,0,0,0-.026-.323c.213-.537.441-1.067.688-1.587a15.635,15.635,0,0,1,4.216-5.6,26.427,26.427,0,0,1,6.831-3.7c4.834-1.924,10.133-2.864,15.233-1.461,4.312,1.188,9.363,3.9,11.837,7.762a23.01,23.01,0,0,1,2.573,6.8,36.22,36.22,0,0,1,1.137,7.733,26.049,26.049,0,0,1-3.22,13.863A20.724,20.724,0,0,1,157.649,195.606Z" transform="translate(-89.875 -115.887)" fill="#231f20"/>
      <path id="Trazado_342" data-name="Trazado 342" d="M450.036,177.449c-.085-.065-.19.076-.113.155a14.938,14.938,0,0,1,3.531,4.98,6.791,6.791,0,0,0-3.155-1.97.252.252,0,0,0-.193.464,17.25,17.25,0,0,1,4.021,3.368c.217.286.758.141.629-.264a13.282,13.282,0,0,0-4.72-6.732Z" transform="translate(-352.509 -140.844)" fill="#231f20"/>
      <path id="Trazado_343" data-name="Trazado 343" d="M258.166,92.47c1.751-.588,3.557-.7,5.314-1.2.145-.042.169-.292,0-.319a10.2,10.2,0,0,0-4.3.5,8.467,8.467,0,0,1,6.755-2.179c.139.019.17-.217.032-.244a8.125,8.125,0,0,0-8.129,2.884C257.656,92.15,257.822,92.586,258.166,92.47Z" transform="translate(-190.092 -65.951)" fill="#231f20"/>
      <path id="Trazado_344" data-name="Trazado 344" d="M138.989,146.784a25.948,25.948,0,0,0,3.019-2.1.13.13,0,0,0-.125-.217,8.527,8.527,0,0,0-2.357,1.3,10.361,10.361,0,0,1,3.457-3.681.1.1,0,1,0-.1-.176,8.588,8.588,0,0,0-4.237,4.522C138.556,146.641,138.755,146.951,138.989,146.784Z" transform="translate(-89.373 -110.805)" fill="#231f20"/>
      <path id="Trazado_345" data-name="Trazado 345" d="M100.724,260.729a7.8,7.8,0,0,0-2.088,2.474,10.433,10.433,0,0,1,1.083-6.676.1.1,0,0,0-.165-.1,9.423,9.423,0,0,0-1.378,7.733.328.328,0,0,0,.592.076,39.326,39.326,0,0,0,2.165-3.294C101,260.814,100.865,260.633,100.724,260.729Z" transform="translate(-54.938 -207.59)" fill="#231f20"/>
      <path id="Trazado_346" data-name="Trazado 346" d="M149.5,427.617a21.624,21.624,0,0,1,.269,3.531,12.286,12.286,0,0,1-3.112-4.667.127.127,0,0,0-.234.063,8.548,8.548,0,0,0,3.4,5.387.3.3,0,0,0,.5-.206,9.672,9.672,0,0,0-.319-4.176C149.912,427.3,149.457,427.317,149.5,427.617Z" transform="translate(-95.967 -351.326)" fill="#231f20"/>
      <path id="Trazado_347" data-name="Trazado 347" d="M335.292,494.859a6.13,6.13,0,0,1-1.274.917,3.075,3.075,0,0,1-1.335.249c.387-.928.823-1.826,1.274-2.72.056-.111-.1-.252-.183-.142a13.074,13.074,0,0,0-1.714,2.963c-.059.139-.029.365.155.394,1.177.181,2.856-.206,3.4-1.406a.212.212,0,0,0-.326-.255Z" transform="translate(-252.874 -407.711)" fill="#231f20"/>
      <path id="Trazado_348" data-name="Trazado 348" d="M447.752,388.59a16.575,16.575,0,0,1-3.514,4.683,18.06,18.06,0,0,1,.718-3.328,15.687,15.687,0,0,0,.175-2.838.2.2,0,0,0-.4,0,14.551,14.551,0,0,1-.685,4.159,4.711,4.711,0,0,0-.36,2.713.325.325,0,0,0,.475.192,10.847,10.847,0,0,0,4.035-5.393.243.243,0,0,0-.442-.187Z" transform="translate(-347.186 -317.936)" fill="#231f20"/>
    </g>
  </g>
</svg>
