<svg xmlns="http://www.w3.org/2000/svg" width="274" height="122" viewBox="0 0 274 122">
  <g id="Grupo_26" data-name="Grupo 26" transform="translate(-805 -1557)">
    <rect id="Rectángulo_39" data-name="Rectángulo 39" width="274" height="122" transform="translate(805 1557)" fill="none"/>
    <g id="doodle-135" transform="translate(765.163 1565.84)">
      <path id="Trazado_990" data-name="Trazado 990" d="M263.874,502.33c-1.554.065-3.109.1-4.657.048l-.217-.011c.543,1.873.8,3.846,1.248,5.741a19.709,19.709,0,0,0,.815,2.733,4.958,4.958,0,0,0,1.456,2.309c1.206.838,1.784-.622,1.807-1.63s-.038-2-.079-3C264.162,506.458,264.008,504.395,263.874,502.33Z" transform="translate(-89.149 -422.72)" fill="#88e0ff"/>
      <path id="Trazado_991" data-name="Trazado 991" d="M288.241,178.842c-.8.077-1.6.159-2.4.235s-1.6.155-2.406.216a8.367,8.367,0,0,1-1.252.046A7.438,7.438,0,0,0,283.206,182c.64.9,2.634,1.262,3.655,1.068a3.441,3.441,0,0,0,2.251-2.019,8.571,8.571,0,0,0,.763-2.417A6.679,6.679,0,0,1,288.241,178.842Z" transform="translate(-109.18 -142.992)" fill="#e27683"/>
      <path id="Trazado_992" data-name="Trazado 992" d="M402.608,154.961a1.522,1.522,0,0,0-.272,0c-.087.008-.187.023-.293.043a1.135,1.135,0,0,0-.111.088c-.484.437-.515,2.1.469,1.865.512-.122,1.1-1.125.709-1.565a1.821,1.821,0,0,0-.242-.155A.562.562,0,0,1,402.608,154.961Z" transform="translate(-212.381 -122.534)" fill="#fff"/>
      <path id="Trazado_993" data-name="Trazado 993" d="M193.988,23.205a9.209,9.209,0,0,0-.427,2.429,12.936,12.936,0,0,1-.058,2.274.345.345,0,0,1-.543.213,5.414,5.414,0,0,1-2.167.068q-1.358-.043-2.724-.071-2.649-.056-5.3-.046c-1.766,0-3.547,0-5.317.106-.873.056-1.743.136-2.611.25a10.254,10.254,0,0,1-2.381.25.272.272,0,0,1-.167-.082.463.463,0,0,1-.295-.543,6.3,6.3,0,0,0-1.392-4.53,2.9,2.9,0,0,0-1.661-1.451,2.606,2.606,0,0,0-1.971.512,3.8,3.8,0,0,0-1.166,4.227,9.346,9.346,0,0,0,2.278,3.323.405.405,0,0,1-.216.679.463.463,0,0,1-.307.55c-2.782,1.057-3.431,4.267-3.605,6.9-.213,3.213-.292,6.44-.379,9.658-.154,5.728-.206,11.465-.05,17.195.136,5.1.572,10.529,3.608,14.823a12.117,12.117,0,0,0,4.9,4.169c2.468,1.087,5.222.911,7.849.784,2.877-.136,5.756-.253,8.633-.379l4.24-.189,4.492-.242a3.8,3.8,0,0,0,3.338-1.394,13.063,13.063,0,0,0,1.752-4.778c.94-4.151.815-8.4.8-12.633-.014-4.309-.048-8.618-.067-12.925-.02-4.332.007-8.684-.217-13.011-.159-3.055-.234-9.595-4.754-9.32a.537.537,0,0,1-.489-.751.543.543,0,0,1,.056-.666,6.093,6.093,0,0,0,1.72-4.115,3.693,3.693,0,0,0-1.991-3.656C195.632,20.147,194.485,21.714,193.988,23.205Zm-26.264,4.327a3.4,3.4,0,0,1-.825-2.353,2.042,2.042,0,0,1,.8-1.722c.283-.239.671.2.432.469-.769.853.09,2.366.211,3.289A.377.377,0,0,1,167.724,27.532Zm.9,12.147a2.948,2.948,0,0,1,4.287.9c.743,1.449.507,4.066-1.223,4.711a1.845,1.845,0,0,1-.762.115,3.3,3.3,0,0,1-2.581-1c-1.066-1.244-1.069-3.687.283-4.727Zm10.469,22.428a9.261,9.261,0,0,1-5.851,2.581,7.035,7.035,0,0,1-2.98-.781,7.388,7.388,0,0,1-2.533-1.793c-.242-.312.076-.868.478-.747,1.121.336,2.077,1.174,3.172,1.614a4.89,4.89,0,0,0,3.657.049c1.884-.7,4.8-2.392,4.689-4.763-.128-2.648-5.063-.694-6.371-.272a4.987,4.987,0,0,1-3.313.289,5.548,5.548,0,0,1-2.528-2.093c-.174-.25.12-.679.408-.488,1.013.645,2.07,1.709,3.366,1.606a9.893,9.893,0,0,0,2.164-.636c.7-.228,1.415-.425,2.133-.6,1.679-.416,4.075-.931,5.1.925,1,1.769-.277,3.907-1.589,5.11Zm3.642-14.411a4.719,4.719,0,0,1-3.114-1.517,10.592,10.592,0,0,1-1.358-3.9c-.144-.734-.242-1.475-.317-2.22a6.737,6.737,0,0,1-.1-1.9.778.778,0,0,1,.822-.606A8.143,8.143,0,0,1,181,37.114q1.345-.155,2.7-.272c.833-.077,1.671-.159,2.508-.19a2.025,2.025,0,0,1,1.577.446c.785.769.815,2.429.815,3.449a10.324,10.324,0,0,1-.687,3.8c-.854,2.233-2.664,3.813-5.174,3.344Zm15.532,8.073c-1.176,1.913-3.5,2.218-5.512,1.551a11.059,11.059,0,0,1-3.137-1.766,10.236,10.236,0,0,0-1.572-1.2c-.75-.36-1.41.238-1.63.932-.746,2.332,1.179,5.169,3.086,6.325,2.309,1.4,4.837,1,7.147-.128.576-.281.951.592.5.951a7.586,7.586,0,0,1-6.995.823,7.93,7.93,0,0,1-4.356-4.048c-.8-1.675-1.288-4.328.371-5.659,2.013-1.615,3.939,1.045,5.57,1.986,1.873,1.087,4.356,1.4,6.087-.145.22-.2.6.122.448.378Zm.728-12.969a2.7,2.7,0,0,1-2.646,1.564,3.663,3.663,0,0,1-2.61-1.494,4.156,4.156,0,0,1-.155-3.268,2.64,2.64,0,0,1,1.808-1.549,2.345,2.345,0,0,1,1.611-.5c2.569.189,3.108,3.391,2,5.246Zm-1.63-16.327a.3.3,0,0,1-.53-.168,10.285,10.285,0,0,0-.543-3.532c-.168-.394.365-.581.606-.318a3.288,3.288,0,0,1,.478,4.018Z" transform="translate(-6.567 -6.489)" fill="#88e0ff"/>
      <path id="Trazado_994" data-name="Trazado 994" d="M332,499.385c.428,1.91.471,3.924.738,5.862.187,1.358.337,4.075,2.135,4.32,1.206.162,1.115-1.167,1.153-2l.143-3.172q.071-1.588.136-3.172c.027-.641-.009-1.346.077-2.009l-4.068.162Z" transform="translate(-152.232 -420.024)" fill="#88e0ff"/>
      <path id="Trazado_995" data-name="Trazado 995" d="M212.4,172.718c.178-.7-.488-1.494-1.214-1.171a1.044,1.044,0,0,0-.427.346,2.357,2.357,0,0,0,.261.9C211.379,173.408,212.2,173.528,212.4,172.718Z" transform="translate(-47.462 -136.808)" fill="#fff"/>
      <path id="Trazado_996" data-name="Trazado 996" d="M197.286,162.742a1.845,1.845,0,0,0,.762-.115c1.727-.645,1.963-3.26,1.223-4.711a2.948,2.948,0,0,0-4.287-.9,3.524,3.524,0,0,0-.272,4.727A3.275,3.275,0,0,0,197.286,162.742Zm-.64-4.178c.727-.325,1.392.471,1.214,1.171-.205.815-1.022.69-1.38.071a2.357,2.357,0,0,1-.261-.9A1.044,1.044,0,0,1,196.647,158.563Z" transform="translate(-32.922 -123.826)" fill="#231f20"/>
      <path id="Trazado_997" data-name="Trazado 997" d="M385.529,145.37a2.64,2.64,0,0,0-1.808,1.549,4.13,4.13,0,0,0,.155,3.268,3.613,3.613,0,0,0,2.61,1.494,2.7,2.7,0,0,0,2.646-1.564c1.113-1.856.573-5.057-1.991-5.25A2.345,2.345,0,0,0,385.529,145.37Zm1.9,1.3c.391.44-.2,1.443-.709,1.565-.983.232-.951-1.428-.469-1.865a1.131,1.131,0,0,1,.111-.088c.106-.02.206-.035.293-.043a1.524,1.524,0,0,1,.272,0,.562.562,0,0,0,.259.28,1.823,1.823,0,0,1,.236.152Z" transform="translate(-196.701 -113.812)" fill="#231f20"/>
      <path id="Trazado_998" data-name="Trazado 998" d="M279.389,145.931a10.324,10.324,0,0,0,.687-3.8c-.007-1.02-.035-2.68-.815-3.449a2.025,2.025,0,0,0-1.577-.446c-.837.031-1.675.113-2.508.19q-1.349.124-2.7.272a8.169,8.169,0,0,0-2.335.436.778.778,0,0,0-.822.606,6.745,6.745,0,0,0,.1,1.9c.075.744.172,1.486.316,2.22a10.5,10.5,0,0,0,1.358,3.9,4.7,4.7,0,0,0,3.113,1.517C276.712,149.754,278.522,148.174,279.389,145.931Zm-3.676,2.221c-1.022.194-3.016-.17-3.656-1.068a7.489,7.489,0,0,1-1.026-2.658,8.37,8.37,0,0,0,1.252-.046c.8-.061,1.6-.136,2.406-.216s1.6-.158,2.4-.235a6.8,6.8,0,0,0,1.63-.212,8.572,8.572,0,0,1-.763,2.417A3.426,3.426,0,0,1,275.713,148.152Z" transform="translate(-98.032 -108.079)" fill="#231f20"/>
      <path id="Trazado_999" data-name="Trazado 999" d="M335.322,261.291c-1.731,1.543-4.211,1.229-6.087.145-1.63-.941-3.55-3.6-5.57-1.986-1.659,1.331-1.174,3.984-.371,5.659a7.929,7.929,0,0,0,4.356,4.048,7.59,7.59,0,0,0,6.995-.823c.455-.353.079-1.223-.5-.951-2.309,1.132-4.832,1.53-7.147.128-1.9-1.156-3.832-3.992-3.086-6.325.221-.694.882-1.292,1.63-.932a9.984,9.984,0,0,1,1.572,1.2,11.069,11.069,0,0,0,3.137,1.766c2.01.667,4.336.361,5.512-1.551C335.929,261.417,335.546,261.091,335.322,261.291Z" transform="translate(-144.072 -212.394)" fill="#231f20"/>
      <path id="Trazado_1000" data-name="Trazado 1000" d="M201.216,278.593q-1.076.265-2.133.6a10.12,10.12,0,0,1-2.164.636c-1.3.1-2.353-.96-3.366-1.606-.292-.187-.585.238-.408.488a5.548,5.548,0,0,0,2.528,2.093,5,5,0,0,0,3.313-.289c1.308-.418,6.249-2.372,6.371.272.114,2.37-2.805,4.063-4.689,4.763a4.89,4.89,0,0,1-3.657-.049c-1.095-.44-2.051-1.278-3.172-1.614-.408-.121-.72.435-.478.747a7.425,7.425,0,0,0,2.533,1.793,7.035,7.035,0,0,0,2.98.781,9.254,9.254,0,0,0,5.851-2.581c1.312-1.2,2.581-3.342,1.6-5.117C205.287,277.663,202.9,278.177,201.216,278.593Z" transform="translate(-32.194 -229.018)" fill="#231f20"/>
      <path id="Trazado_1001" data-name="Trazado 1001" d="M186.91,15.3a8.509,8.509,0,0,0-.857,3.028,10.671,10.671,0,0,0-.06,2.14,8.515,8.515,0,0,0-1.42-.056q-1.437-.045-2.874-.071-2.8-.05-5.6-.033c-1.766.011-3.545.035-5.311.174a21.483,21.483,0,0,0-2.747.369,11.09,11.09,0,0,0-1.494.369c.272-1.813-.806-3.668-1.823-5.087a3.279,3.279,0,0,0-4.445-1.189c-3.51,1.894-2.605,6.913.147,9.07a6.56,6.56,0,0,0-3.836,5.076A50.789,50.789,0,0,0,156.1,37.6c-.208,6.194-.327,12.4-.235,18.594.082,5.519.136,11.39,2.853,16.359a14.558,14.558,0,0,0,4.424,5.023,12.1,12.1,0,0,0,5.659,1.991c.155,1.3.489,2.595.758,3.874.238,1.132.463,2.269.773,3.382.469,1.693,1.335,4.619,3.422,4.928a2.057,2.057,0,0,0,2.074-1.13,6.085,6.085,0,0,0,.363-3.142c-.084-2.639-.2-5.288-.461-7.917,1.117-.054,2.233-.118,3.347-.171a17.422,17.422,0,0,0,.087,3.733c.115,1.242.249,2.457.467,3.668.3,1.679,1.072,3.738,3.069,3.852,2.4.136,2.153-2.616,2.221-4.259q.079-1.964.163-3.927l.092-2.114c.018-.408.057-.806.042-1.2h.166c1.4-.054,2.68-.168,4.23-.234,1.644-.113,2.938.029,4.245-.841a6.186,6.186,0,0,0,2.415-3.748c1.428-4.418,1.57-8.917,1.558-13.519-.014-4.809-.034-9.618-.107-14.425-.075-4.776.018-9.581-.3-14.349-.149-2.286-.285-4.871-1.391-6.928a4.746,4.746,0,0,0-3.525-2.6,6.626,6.626,0,0,0,1.5-4.583,4.7,4.7,0,0,0-2.834-4.544A3.4,3.4,0,0,0,186.91,15.3ZM175.177,88.8c-.023,1-.6,2.461-1.807,1.63a4.944,4.944,0,0,1-1.456-2.309,19.707,19.707,0,0,1-.815-2.733c-.444-1.9-.706-3.867-1.248-5.741l.223.011c1.547.052,3.1.018,4.657-.048.136,2.065.289,4.128.374,6.2C175.139,86.8,175.2,87.809,175.177,88.8Zm8.9-7.607-.136,3.172-.143,3.172c-.038.837.053,2.165-1.153,2-1.8-.243-1.948-2.96-2.135-4.32-.272-1.937-.31-3.952-.738-5.862l.315-.014,4.068-.162c-.088.663-.052,1.368-.079,2.009Zm8.746-63.184a6.093,6.093,0,0,1-1.72,4.115.543.543,0,0,0-.056.666.538.538,0,0,0,.489.751c4.521-.272,4.6,6.265,4.754,9.32.224,4.327.2,8.679.217,13.011.019,4.308.053,8.616.067,12.925.014,4.229.136,8.478-.8,12.633a13.064,13.064,0,0,1-1.752,4.778,3.8,3.8,0,0,1-3.338,1.394l-4.492.242-4.24.189c-2.877.126-5.756.24-8.633.379-2.627.128-5.381.3-7.849-.784a12.079,12.079,0,0,1-4.9-4.177c-3.036-4.294-3.468-9.726-3.608-14.823-.156-5.73-.1-11.466.05-17.195.087-3.218.166-6.446.379-9.658.174-2.634.823-5.841,3.605-6.9a.463.463,0,0,0,.307-.55c.278-.1.47-.393.216-.679a9.259,9.259,0,0,1-2.278-3.323A3.806,3.806,0,0,1,160.4,16.1a2.572,2.572,0,0,1,1.971-.512,2.916,2.916,0,0,1,1.671,1.455,6.3,6.3,0,0,1,1.392,4.53.463.463,0,0,0,.295.543.272.272,0,0,0,.167.082,10.254,10.254,0,0,0,2.381-.25c.868-.107,1.737-.194,2.611-.25,1.766-.111,3.545-.1,5.317-.106s3.532.01,5.3.046q1.358.026,2.724.071a5.318,5.318,0,0,0,2.167-.068.345.345,0,0,0,.543-.213A12.936,12.936,0,0,0,187,19.149a9.209,9.209,0,0,1,.427-2.429c.5-1.494,1.644-3.058,3.411-2.361A3.686,3.686,0,0,1,192.823,18.011Z" fill="#231f20"/>
      <path id="Trazado_1002" data-name="Trazado 1002" d="M405.133,33.349a10.093,10.093,0,0,1,.543,3.532.3.3,0,0,0,.53.168,3.3,3.3,0,0,0-.471-4.018C405.495,32.767,404.965,32.955,405.133,33.349Z" transform="translate(-215.403 -17.066)" fill="#231f20"/>
      <path id="Trazado_1003" data-name="Trazado 1003" d="M190.4,44.507c-.121-.922-.979-2.436-.211-3.289.239-.272-.149-.708-.432-.469a2.028,2.028,0,0,0-.8,1.722,3.366,3.366,0,0,0,.825,2.353A.378.378,0,0,0,190.4,44.507Z" transform="translate(-28.623 -23.783)" fill="#231f20"/>
    </g>
  </g>
</svg>
