<svg xmlns="http://www.w3.org/2000/svg" width="274" height="122" viewBox="0 0 274 122">
  <g id="Grupo_24" data-name="Grupo 24" transform="translate(-201 -1557)">
    <rect id="Rectángulo_37" data-name="Rectángulo 37" width="274" height="122" transform="translate(201 1557)" fill="none"/>
    <g id="doodle-08" transform="translate(273.839 1531.24)">
      <path id="Trazado_228" data-name="Trazado 228" d="M30.362,96.26c.286.03,1.262-.856,1.486-1a28.33,28.33,0,0,1,3.233-1.806,30.706,30.706,0,0,1,7-2.334.759.759,0,0,1,.846,1.1c-1.064,1.9.042,4.6.9,6.388a16.555,16.555,0,0,0,3.035,4.344A34.921,34.921,0,0,1,57.573,91.535c.577-.387,1.5.269,1.231.946a4.845,4.845,0,0,0,.138,4.089,43.156,43.156,0,0,1,10.237-6.8.821.821,0,0,1,1.114,1.112c-.926,1.791-.35,3.9.213,5.714a22.8,22.8,0,0,0,1.867,4.378,16.013,16.013,0,0,0,5.434,5.887c.292-6.379,4.762-11.513,8.952-16.017.554-.6,1.847-.173,1.728.716a6.259,6.259,0,0,0,.947,4.358,14.056,14.056,0,0,1,3.578-5.276.987.987,0,0,1,1.665.691,4.846,4.846,0,0,0,.862,2.937l.918-.666c.529-1.8,2.9-3.989,3.849-4.625a6.2,6.2,0,0,1,8.4.943,8.348,8.348,0,0,1,1.08,7.7,17.767,17.767,0,0,0,2.877-9.851,6.827,6.827,0,0,0-1.492.677.966.966,0,0,1-1.4-1.07,13.668,13.668,0,0,0-4.145-12.5,8.4,8.4,0,0,1-.994,2.371.667.667,0,0,1-.98.212.933.933,0,0,1-.706-1.156c.236-1.066-.566-2.458-.919-3.446s-.725-1.985-1.134-2.956a25.969,25.969,0,0,0-2.877-5.277A14.34,14.34,0,0,0,93.138,60.4a35,35,0,0,0-3.343-1.511,6.7,6.7,0,0,0-2.383-.7,31.715,31.715,0,0,1,1.064,7.136.975.975,0,0,1-1.649.683c-2.947-3.34-6.715-6.951-11.357-7.332q.327,2.489.7,4.958a1.017,1.017,0,0,1-1.85.778c-1.607-2.226-4.176-3.459-6.679-4.436a32.663,32.663,0,0,0-8.924-2.52,34.069,34.069,0,0,0-9.941,1.12q-3.9.831-7.734,1.931a47.935,47.935,0,0,1,10.33,6.368.751.751,0,0,1-.328,1.245C42.706,70.042,33.4,74.933,31.879,84.058c2.346-1.73,4.988-3.133,7.992-2.645.6.1.467,1.133-.145,1.069h-.068c-3.586,3.566-7.854,6.9-9.187,12.025C30.392,94.8,29.952,96.218,30.362,96.26Zm76.207-15.869a4.677,4.677,0,0,1,.891,4.176.177.177,0,0,1-.347-.047,7.469,7.469,0,0,0-.831-3.961c-.112-.191.165-.342.286-.173ZM97.046,69.514c2.125,2.38,3.905,5.654,3.8,8.936,0,.23-.362.3-.412.056-.66-3.238-1.464-6.141-3.651-8.726C96.626,69.6,96.885,69.334,97.046,69.514Zm-15.614-4.2c4.6,2.268,10.078,5.867,11.171,11.3.042.208-.268.372-.366.156a19.975,19.975,0,0,0-4.266-6.464,29.3,29.3,0,0,0-6.726-4.675c-.212-.118-.025-.428.187-.324ZM80.188,91.681a29.04,29.04,0,0,1,8.952-7.693c.2-.106.428.156.247.322-2.765,2.415-5.836,4.322-8.216,7.175a16.315,16.315,0,0,0-4.1,10.52.2.2,0,0,1-.4,0,15.839,15.839,0,0,1,3.521-10.329ZM69.4,87.048c-2.541.77-4.859,1.528-6.777,3.482-.145.146-.367-.078-.227-.227,1.784-1.886,4.249-3.608,6.945-3.689a.222.222,0,0,1,.059.434ZM56.006,62.172a22.358,22.358,0,0,1,10.539,2.363,23.455,23.455,0,0,1,4.484,2.956,14.4,14.4,0,0,1,3.7,4.113.277.277,0,0,1-.433.333c-1.221-1.19-2.2-2.567-3.5-3.7a23.047,23.047,0,0,0-4.44-3.021,23.759,23.759,0,0,0-10.348-2.748.156.156,0,0,1,0-.3ZM51.969,89.98c2.124-2.009,5.377-4.317,8.425-4.412a.2.2,0,0,1,.1.361c-1.374.671-2.861,1.064-4.218,1.8a18.5,18.5,0,0,0-3.81,2.74,19.318,19.318,0,0,0-5.134,8.015.177.177,0,0,1-.341-.093,17.608,17.608,0,0,1,4.98-8.412ZM37.743,78.387c-.123.126-.356-.045-.249-.191a13.668,13.668,0,0,1,5.766-4.372c2.111-.876,4.955-1.585,7.216-.919a.24.24,0,0,1-.064.467c-1.175.1-2.349,0-3.525.171a15.1,15.1,0,0,0-3.247.829A16.441,16.441,0,0,0,37.743,78.387Zm-.807,12.291a6.048,6.048,0,0,1,3.306-2.212,27.659,27.659,0,0,1,5.543-1.147c.221-.02.24.311.05.369-2.855.916-6.583.714-8.729,3.121-.081.092-.24-.026-.17-.131Z" transform="translate(-7.624 -9.824)" fill="#2f3205"/>
      <path id="Trazado_229" data-name="Trazado 229" d="M480.18,327.26a7.169,7.169,0,0,1-6.611,3.8,49.661,49.661,0,0,1-3.178,13.526l-.311.817a38.77,38.77,0,0,0,10.769-7.312h-1.64a.93.93,0,0,1-.649-1.567c2.57-2.944,5.324-6.11,6.26-9.966a24.119,24.119,0,0,1-3.552,1.209A.879.879,0,0,1,480.18,327.26Zm-3.535,11.955a4.375,4.375,0,0,1-2.993,2.135c-.193.051-.33-.246-.14-.328a7.9,7.9,0,0,0,1.532-.882c.467-.347.859-.8,1.346-1.119C476.51,338.942,476.7,339.075,476.645,339.215Zm1.756-6.089a3.314,3.314,0,0,1-.778,1.235c-.355.442-.727.865-1.117,1.277-.176.188-.523-.07-.361-.279q.518-.671,1.025-1.349a3.878,3.878,0,0,1,.96-1.089.184.184,0,0,1,.271.2Z" transform="translate(-379.077 -237.114)" fill="#2f3205"/>
      <path id="Trazado_230" data-name="Trazado 230" d="M146.438,279.339a1.017,1.017,0,0,1,1.2-.952c4.874.845,8.079-5.831,6.08-9.773a4.3,4.3,0,0,0-1-1.305,5.187,5.187,0,0,0-5.756.366,5.46,5.46,0,0,0-1.615,1.749,17.419,17.419,0,0,0-.671,1.808,2.272,2.272,0,0,1-.171.311,1.815,1.815,0,0,1-.252.467,1.15,1.15,0,0,1-1.481.4l-.594.478a.978.978,0,0,1-1.346,0,6.817,6.817,0,0,1-1.655-2.735,12.083,12.083,0,0,0-2.226,4.667,1.01,1.01,0,0,1-1.669.44,7.826,7.826,0,0,1-2.6-4.566c-3.687,4.045-7.191,8.638-6.9,14.377a.928.928,0,0,1-1.382.792,17.481,17.481,0,0,1-7.743-7.983c-1.31-2.581-2.8-6.12-2.3-9.179a39,39,0,0,0-8.852,6.428.852.852,0,0,1-1.195,0,6.586,6.586,0,0,1-1.453-4.289,32.506,32.506,0,0,0-9.006,10.424.778.778,0,0,1-1.217.156,18.02,18.02,0,0,1-4.376-6.265,10.13,10.13,0,0,1-1-5.624c-.233.058-.467.12-.7.182a25.666,25.666,0,0,0-1.649,11.966,40.858,40.858,0,0,0,2.287,11.357,28.414,28.414,0,0,0,12.82,15.5c6.11,3.357,13.358,4.347,20.256,3.689a34.838,34.838,0,0,0,10.824-2.567c3.623-1.626,6.029-4.37,7.983-7.759a55.714,55.714,0,0,0,4.807-10.89,86.889,86.889,0,0,0,2.508-11.513A1,1,0,0,1,146.438,279.339Zm1.125-9.3a1.591,1.591,0,0,1,.529-.538,2.8,2.8,0,0,1,1.182-.233,3.1,3.1,0,0,1,2.178,1.022,2.591,2.591,0,0,1-1.4,4.325c-.728.156-2.405.026-2.287-1.1.117-1.089,1.635-.489,2.245-.887.68-.443.165-1.262-.338-1.607a2.572,2.572,0,0,0-1.089-.425c-.17-.016-.338.025-.506,0a.493.493,0,0,1-.252-.067c-.107-.1-.129-.11-.067-.017A.283.283,0,0,1,147.563,270.043ZM95.4,293.607a.99.99,0,0,1-.6-.019.817.817,0,0,1-.4-.277.709.709,0,0,1-.166-.467,1.922,1.922,0,0,1,.078-.44,1.041,1.041,0,0,1,.417-.559.713.713,0,0,1,1.041.423,1.007,1.007,0,0,1,.019.173.745.745,0,0,1-.384,1.165ZM93.959,288.4c-2.1.176-3.34-1.943-2.995-3.854a.261.261,0,0,1,.434-.115c.884.809.993,2.9,2.589,2.555,1.635-.358,1.792-2.382,2.237-3.651.235-.672,1.329-.6,1.3.176-.089,2.032-1.242,4.7-3.561,4.89Zm24.729,6.421a7.521,7.521,0,0,1-4.482,2.359,7.261,7.261,0,0,1-4.954-1.168c-1.059-.7-2.7-2.113-2.425-3.541a.268.268,0,0,1,.389-.156,5.327,5.327,0,0,1,1.235,1.168,7.778,7.778,0,0,0,1.722,1.288,5.747,5.747,0,0,0,7.3-1.4c.688-.815.98-2.439,1.934-2.906a.531.531,0,0,1,.63.081C121.1,291.8,119.57,293.852,118.688,294.819Zm17.969-2.452a1.275,1.275,0,0,1-.252-1.934,1.13,1.13,0,0,1,1.332-.224c.009,0,.016.012.025.017a.915.915,0,0,1,.54.384,1.153,1.153,0,0,1,.18.653A1.262,1.262,0,0,1,136.657,292.367Zm1.077-6.906a3.964,3.964,0,0,1-4.345.685,3.807,3.807,0,0,1-2.177-3.832c.068-.359.261-1.013.742-1,.33,0,.467.257.467.538a.241.241,0,0,1-.008.048c.331,1.215.59,2.537,2.066,2.872a2.44,2.44,0,0,0,2.88-2.391.753.753,0,0,1,1.128-.646c1.3.977.193,2.892-.761,3.729Z" transform="translate(-53.756 -186.479)" fill="#f2b879"/>
      <path id="Trazado_231" data-name="Trazado 231" d="M21.188,85.873c-.1.843.072,1.893,1.089,2.049,1.22.188,2.57-1.217,3.553-1.788a28.873,28.873,0,0,1,5.053-2.3c-1.674,2.537-1.63,6.334-1.627,9.179a43.07,43.07,0,0,0,1.442,11.1A31.879,31.879,0,0,0,42.5,121.987c6.1,4.384,13.794,6.1,21.215,5.946,7.513-.156,16.258-1.766,21.128-8.023a40.712,40.712,0,0,0,5.178-9.16,34.93,34.93,0,0,0,14.445-10.013.9.9,0,0,0-.622-1.515l-1.654-.028c2.878-3.242,5.313-6.951,5.732-11.37.073-.759-.845-1.12-1.425-.818a20.517,20.517,0,0,1-2.233,1,19.4,19.4,0,0,0,2.621-11.247.964.964,0,0,0-1.195-.912,8.308,8.308,0,0,0-1.466.364,14.971,14.971,0,0,0-6.346-13.324.768.768,0,0,0-1.133.426c-.417-1.214-.862-2.418-1.349-3.6a27.709,27.709,0,0,0-3.56-6.492A15.729,15.729,0,0,0,86,48.528a36.448,36.448,0,0,0-3.9-1.512,5.217,5.217,0,0,0-3.7-.224.937.937,0,0,0-.638,1.123,29.789,29.789,0,0,1,.971,4.957c-3.239-3.21-7.136-5.783-11.875-5.791a.879.879,0,0,0-.873.873q.18,1.674.333,3.346a17.858,17.858,0,0,0-4.42-2.547A36.464,36.464,0,0,0,52.429,45.9c-3.56-.451-7.116.263-10.572,1.075-3.594.843-7.157,1.837-10.688,2.9a.714.714,0,0,0,0,1.363,46.91,46.91,0,0,1,10.407,5.984,29.069,29.069,0,0,0-12.4,6.259,18.986,18.986,0,0,0-6.43,12.247c-.058.647.736.778,1.137.467,2.069-1.6,4.308-3.332,6.947-3.553C26.325,75.8,21.882,80.216,21.188,85.873ZM85.32,115.422c-1.954,3.388-4.356,6.133-7.983,7.759a34.807,34.807,0,0,1-10.824,2.567c-6.9.658-14.128-.32-20.256-3.689a28.373,28.373,0,0,1-12.82-15.5A40.858,40.858,0,0,1,31.151,95.2,25.666,25.666,0,0,1,32.8,83.233c.232-.062.467-.124.7-.182a10.135,10.135,0,0,0,1,5.624,18.021,18.021,0,0,0,4.378,6.267.778.778,0,0,0,1.217-.156A32.507,32.507,0,0,1,49.1,84.362a6.586,6.586,0,0,0,1.445,4.289.852.852,0,0,0,1.195,0,39,39,0,0,1,8.852-6.428c-.5,3.059.994,6.6,2.3,9.179a17.488,17.488,0,0,0,7.743,7.983.928.928,0,0,0,1.382-.792c-.294-5.739,3.21-10.329,6.9-14.377a7.826,7.826,0,0,0,2.6,4.566,1.011,1.011,0,0,0,1.669-.44,12.084,12.084,0,0,1,2.226-4.667A6.818,6.818,0,0,0,87.07,86.4a.978.978,0,0,0,1.346,0l.6-.479a1.15,1.15,0,0,0,1.481-.4,1.816,1.816,0,0,0,.252-.467,2.269,2.269,0,0,0,.171-.311,17.414,17.414,0,0,1,.671-1.808A5.459,5.459,0,0,1,93.2,81.193a5.2,5.2,0,0,1,5.756-.366,4.3,4.3,0,0,1,1,1.305c2,3.942-1.206,10.618-6.08,9.773a1.017,1.017,0,0,0-1.2.952,1,1,0,0,0-.047.163,87.487,87.487,0,0,1-2.508,11.513,55.714,55.714,0,0,1-4.809,10.887ZM105.749,89.44c-.933,3.857-3.69,7.023-6.26,9.966a.93.93,0,0,0,.649,1.567h1.64a38.636,38.636,0,0,1-10.769,7.312l.311-.817A49.546,49.546,0,0,0,94.5,93.943a7.169,7.169,0,0,0,6.611-3.8.879.879,0,0,0,1.089.509,24.115,24.115,0,0,0,3.552-1.206ZM32.035,72.653H32.1c.6.064.748-.969.145-1.069-3-.49-5.646.913-7.992,2.645C25.776,65.1,35.082,60.213,43.42,58.281a.75.75,0,0,0,.328-1.245,47.936,47.936,0,0,0-10.33-6.368q3.832-1.092,7.734-1.915a33.961,33.961,0,0,1,9.941-1.117,32.74,32.74,0,0,1,8.924,2.52c2.5.974,5.072,2.206,6.69,4.44a1.017,1.017,0,0,0,1.85-.778q-.378-2.477-.7-4.958c4.636.381,8.4,3.992,11.357,7.332a.977.977,0,0,0,1.649-.683,31.716,31.716,0,0,0-1.073-7.138,6.655,6.655,0,0,1,2.383.7,35.007,35.007,0,0,1,3.343,1.5A14.34,14.34,0,0,1,90.4,54.788a25.616,25.616,0,0,1,2.877,5.277c.409.974.778,1.965,1.134,2.956s1.156,2.38.919,3.446a.933.933,0,0,0,.706,1.156.667.667,0,0,0,.98-.212,8.4,8.4,0,0,0,1-2.369,13.67,13.67,0,0,1,4.145,12.5.963.963,0,0,0,1.4,1.07,6.827,6.827,0,0,1,1.492-.677,17.767,17.767,0,0,1-2.877,9.851,8.345,8.345,0,0,0-1.08-7.7,6.2,6.2,0,0,0-8.4-.943c-.944.636-3.32,2.827-3.849,4.625l-.918.666a4.846,4.846,0,0,1-.862-2.937.987.987,0,0,0-1.665-.691,14.057,14.057,0,0,0-3.588,5.285,6.259,6.259,0,0,1-.951-4.356c.118-.888-1.175-1.312-1.728-.716-4.19,4.5-8.659,9.646-8.952,16.025a16.013,16.013,0,0,1-5.434-5.887A22.8,22.8,0,0,1,62.88,86.78c-.563-1.816-1.139-3.924-.213-5.714a.821.821,0,0,0-1.114-1.112,43.155,43.155,0,0,0-10.234,6.793,4.845,4.845,0,0,1-.135-4.084c.271-.677-.653-1.333-1.231-.946A34.921,34.921,0,0,0,39.244,93.132a16.555,16.555,0,0,1-3.035-4.344C35.35,87,34.244,84.3,35.308,82.4a.759.759,0,0,0-.846-1.1,30.706,30.706,0,0,0-7,2.334,28.332,28.332,0,0,0-3.233,1.806c-.224.146-1.2,1.031-1.486,1-.411-.042.03-1.456.107-1.753C24.181,79.558,28.448,76.224,32.035,72.653Z" fill="#231f20"/>
      <path id="Trazado_232" data-name="Trazado 232" d="M487.913,284.993c-.062-.093-.04-.087.067.017a.493.493,0,0,0,.252.067,3.915,3.915,0,0,0,.506,0,2.572,2.572,0,0,1,1.089.425c.5.345,1.017,1.164.338,1.607-.61.4-2.128-.208-2.245.887-.118,1.125,1.556,1.254,2.287,1.1a2.6,2.6,0,0,0,1.4-4.325,3.1,3.1,0,0,0-2.178-1.022,2.8,2.8,0,0,0-1.182.233,1.591,1.591,0,0,0-.529.538C487.575,284.692,487.657,285.007,487.913,284.993Z" transform="translate(-393.911 -200.96)" fill="#231f20"/>
      <path id="Trazado_233" data-name="Trazado 233" d="M129.249,371.675c-.445,1.27-.6,3.294-2.237,3.651-1.6.349-1.711-1.746-2.589-2.555a.261.261,0,0,0-.434.115c-.345,1.91.895,4.029,2.995,3.854,2.32-.194,3.473-2.858,3.561-4.89C130.577,371.073,129.483,371,129.249,371.675Z" transform="translate(-86.781 -274.821)" fill="#231f20"/>
      <path id="Trazado_234" data-name="Trazado 234" d="M146.815,428.743a.712.712,0,0,0-1.041-.423,1.041,1.041,0,0,0-.417.558,1.922,1.922,0,0,0-.078.44.709.709,0,0,0,.166.467.816.816,0,0,0,.4.277.99.99,0,0,0,.6.019.745.745,0,0,0,.384-1.168A1,1,0,0,0,146.815,428.743Z" transform="translate(-104.808 -322.956)" fill="#231f20"/>
      <path id="Trazado_235" data-name="Trazado 235" d="M390.034,361.591a.753.753,0,0,0-1.128.646,2.44,2.44,0,0,1-2.88,2.391c-1.476-.335-1.735-1.657-2.066-2.872a.239.239,0,0,0,.008-.048c-.008-.282-.14-.532-.467-.538-.481-.009-.674.644-.742,1A3.814,3.814,0,0,0,384.928,366a3.955,3.955,0,0,0,4.345-.685C390.224,364.483,391.331,362.568,390.034,361.591Z" transform="translate(-305.3 -266.339)" fill="#231f20"/>
      <path id="Trazado_236" data-name="Trazado 236" d="M415.882,417.711c-.009,0-.016-.012-.025-.017a1.129,1.129,0,0,0-1.332.224,1.276,1.276,0,0,0,.252,1.934,1.258,1.258,0,0,0,1.825-1.1,1.152,1.152,0,0,0-.18-.653.915.915,0,0,0-.54-.384Z" transform="translate(-331.884 -313.964)" fill="#231f20"/>
      <path id="Trazado_237" data-name="Trazado 237" d="M238.68,419.631c-.961.467-1.245,2.1-1.934,2.9a5.747,5.747,0,0,1-7.3,1.4,7.78,7.78,0,0,1-1.722-1.288,5.326,5.326,0,0,0-1.235-1.168.268.268,0,0,0-.389.156c-.271,1.428,1.366,2.842,2.425,3.541a7.261,7.261,0,0,0,4.954,1.168,7.521,7.521,0,0,0,4.482-2.357c.882-.958,2.405-3.007,1.35-4.274A.531.531,0,0,0,238.68,419.631Z" transform="translate(-173.028 -315.647)" fill="#231f20"/>
      <path id="Trazado_238" data-name="Trazado 238" d="M86.383,156.313c1.176-.166,2.351-.07,3.525-.171a.24.24,0,0,0,.064-.467c-2.261-.666-5.1.044-7.216.919a13.668,13.668,0,0,0-5.766,4.372c-.107.146.126.311.249.191a16.417,16.417,0,0,1,5.9-4.014A15.1,15.1,0,0,1,86.383,156.313Z" transform="translate(-47.12 -92.593)" fill="#231f20"/>
      <path id="Trazado_239" data-name="Trazado 239" d="M195.507,88.424a23.8,23.8,0,0,1,10.348,2.748,23.048,23.048,0,0,1,4.44,3.021c1.3,1.129,2.281,2.506,3.5,3.7a.277.277,0,0,0,.433-.333,14.4,14.4,0,0,0-3.7-4.113,23.455,23.455,0,0,0-4.484-2.956,22.358,22.358,0,0,0-10.539-2.363.156.156,0,0,0,0,.3Z" transform="translate(-147.124 -35.771)" fill="#231f20"/>
      <path id="Trazado_240" data-name="Trazado 240" d="M138.5,251.412a19.318,19.318,0,0,1,5.134-8.015,18.5,18.5,0,0,1,3.81-2.744c1.357-.737,2.844-1.131,4.218-1.8a.2.2,0,0,0-.1-.361c-3.048.095-6.3,2.4-8.425,4.412a17.608,17.608,0,0,0-4.979,8.417.177.177,0,0,0,.339.093Z" transform="translate(-98.795 -162.745)" fill="#231f20"/>
      <path id="Trazado_241" data-name="Trazado 241" d="M73.625,253.225c2.147-2.407,5.875-2.2,8.729-3.121.19-.061.171-.389-.05-.369a27.659,27.659,0,0,0-5.543,1.147,6.07,6.07,0,0,0-3.306,2.212C73.386,253.2,73.544,253.317,73.625,253.225Z" transform="translate(-44.144 -172.24)" fill="#231f20"/>
      <path id="Trazado_242" data-name="Trazado 242" d="M243.874,245.21c-2.7.081-5.161,1.8-6.945,3.689-.14.156.082.373.227.227,1.924-1.954,4.236-2.7,6.777-3.482a.222.222,0,0,0-.059-.434Z" transform="translate(-182.161 -168.42)" fill="#231f20"/>
      <path id="Trazado_243" data-name="Trazado 243" d="M329.313,246.188a16.315,16.315,0,0,1,4.1-10.52c2.38-2.853,5.445-4.761,8.216-7.175.18-.156-.05-.428-.247-.322a29.1,29.1,0,0,0-8.952,7.693,15.808,15.808,0,0,0-3.516,10.324.2.2,0,0,0,.4,0Z" transform="translate(-259.862 -154.012)" fill="#231f20"/>
      <path id="Trazado_244" data-name="Trazado 244" d="M357.855,108.467a29.3,29.3,0,0,1,6.726,4.675,20.1,20.1,0,0,1,4.266,6.464c.1.218.408.054.366-.156-1.089-5.436-6.572-9.034-11.171-11.3C357.83,108.046,357.643,108.355,357.855,108.467Z" transform="translate(-284.233 -52.665)" fill="#231f20"/>
      <path id="Trazado_245" data-name="Trazado 245" d="M461.609,143.965c.05.24.406.174.412-.056.107-3.283-1.672-6.556-3.8-8.936-.156-.18-.42.084-.266.266C460.145,137.824,460.949,140.727,461.609,143.965Z" transform="translate(-368.801 -75.282)" fill="#231f20"/>
      <path id="Trazado_246" data-name="Trazado 246" d="M519.979,208.908a.177.177,0,0,0,.347.047,4.668,4.668,0,0,0-.891-4.176c-.121-.17-.4-.019-.286.168A7.469,7.469,0,0,1,519.979,208.908Z" transform="translate(-420.489 -134.217)" fill="#231f20"/>
      <path id="Trazado_247" data-name="Trazado 247" d="M494.525,406.525c-.487.311-.876.778-1.346,1.119a7.9,7.9,0,0,1-1.532.882c-.19.082-.053.38.14.328a4.368,4.368,0,0,0,2.993-2.135C494.836,406.579,494.644,406.447,494.525,406.525Z" transform="translate(-397.211 -304.618)" fill="#231f20"/>
      <path id="Trazado_248" data-name="Trazado 248" d="M510.87,367.313a3.877,3.877,0,0,0-.96,1.089q-.507.68-1.025,1.349c-.156.208.185.467.361.278.391-.412.762-.835,1.117-1.277a3.436,3.436,0,0,0,.778-1.235.184.184,0,0,0-.271-.2Z" transform="translate(-411.811 -271.505)" fill="#231f20"/>
    </g>
  </g>
</svg>
