<svg xmlns="http://www.w3.org/2000/svg" width="54.2" height="54.2" viewBox="0 0 54.2 54.2">
  <g id="Grupo_18" data-name="Grupo 18" transform="translate(-163.6 -0.7)">
    <circle id="Elipse_17" data-name="Elipse 17" cx="23.8" cy="23.8" r="23.8" transform="translate(166.9 3.8)" fill="#fff"/>
    <g id="Grupo_17" data-name="Grupo 17">
      <path id="Trazado_3106" data-name="Trazado 3106" d="M190.7,54.9a27.1,27.1,0,1,1,27.1-27.1A27.122,27.122,0,0,1,190.7,54.9Zm9.2-38.1a2,2,0,1,0,2,2A2.006,2.006,0,0,0,199.9,16.8ZM191,19.4a8.4,8.4,0,1,0,8.4,8.4A8.451,8.451,0,0,0,191,19.4Zm0,13.8a5.4,5.4,0,1,1,5.4-5.4A5.442,5.442,0,0,1,191,33.2Zm17-12.4a10.285,10.285,0,0,0-10.3-10.3H184.1a10.285,10.285,0,0,0-10.3,10.3V34.4a10.285,10.285,0,0,0,10.3,10.3h13.6A10.285,10.285,0,0,0,208,34.4Zm-3.3,13.6a7.127,7.127,0,0,1-7.1,7.1H184a7.127,7.127,0,0,1-7.1-7.1V20.8a7.127,7.127,0,0,1,7.1-7.1h13.6a7.127,7.127,0,0,1,7.1,7.1Z" fill="#049dd9"/>
    </g>
  </g>
</svg>
