<svg xmlns="http://www.w3.org/2000/svg" width="79" height="79" viewBox="0 0 79 79">
  <g id="Grupo_22" data-name="Grupo 22" transform="translate(-708 -347)">
    <circle id="Elipse_7" data-name="Elipse 7" cx="39.5" cy="39.5" r="39.5" transform="translate(708 347)" fill="#fff"/>
    <g id="bone" transform="translate(726.509 365.999)">
      <path id="Trazado_31" data-name="Trazado 31" d="M46.713,23.318a5.033,5.033,0,0,1,2.212-.5,4.772,4.772,0,0,1,1.058.111,5.123,5.123,0,0,1-.2,10.066,5.184,5.184,0,0,1-3-.4,3.463,3.463,0,0,0-3.936.632l-9.127,9.127a3.441,3.441,0,0,0-.64,3.919,5.067,5.067,0,0,1,.478,2.16,5.123,5.123,0,1,1-9.742-2.211A5.122,5.122,0,1,1,21.6,36.475a5.067,5.067,0,0,1,2.16.478,3.441,3.441,0,0,0,3.919-.64l9.127-9.127a3.462,3.462,0,0,0,.632-3.936,5.123,5.123,0,0,1,3.833-7.206,5.125,5.125,0,0,1,5.831,4,4.772,4.772,0,0,1,.111,1.058,5.039,5.039,0,0,1-.5,2.212Zm0,0" transform="translate(-14.285 -14.274)" fill="#4dd0e1"/>
      <path id="Trazado_32" data-name="Trazado 32" d="M6.535,34.11a7.181,7.181,0,0,0,.772.042h.023a6.978,6.978,0,0,0,.033.79,6.831,6.831,0,0,0,13.616-.787,6.768,6.768,0,0,0-.64-2.887,1.728,1.728,0,0,1,.3-1.984l9.126-9.127a1.755,1.755,0,0,1,2.013-.288A6.831,6.831,0,1,0,36.07,6.985a6.484,6.484,0,0,0-1.431-.152,6.421,6.421,0,0,0-.147-1.407A6.831,6.831,0,1,0,21.609,9.7a1.748,1.748,0,0,1-.293,2L12.19,20.831a1.732,1.732,0,0,1-1.988.3,6.759,6.759,0,0,0-2.883-.639A6.831,6.831,0,0,0,6.535,34.11ZM4.761,25.064a3.48,3.48,0,0,1,3.99-.839,5.171,5.171,0,0,0,5.854-.978l9.126-9.127a5.193,5.193,0,0,0,.976-5.859,3.415,3.415,0,0,1,2.543-4.8,3.436,3.436,0,0,1,3.9,2.69,3.047,3.047,0,0,1,.07.685,3.34,3.34,0,0,1-.189,1.057,6.85,6.85,0,0,0-2.556,2.823,1.708,1.708,0,0,0,3.08,1.477,3.446,3.446,0,0,1,1.615-1.611,3.367,3.367,0,0,1,2.175-.256,3.416,3.416,0,0,1-.125,6.708,3.481,3.481,0,0,1-2.005-.261,5.2,5.2,0,0,0-5.867.971l-9.126,9.127a5.169,5.169,0,0,0-.98,5.849,3.369,3.369,0,0,1,.318,1.437,3.415,3.415,0,1,1-4.888-3.079A1.707,1.707,0,0,0,11.2,28a6.863,6.863,0,0,0-2.838,2.578,3.523,3.523,0,0,1-1.452.141,3.451,3.451,0,0,1-2.976-2.952,3.393,3.393,0,0,1,.828-2.7Zm0,0" transform="translate(0 0)" fill="#012e52"/>
    </g>
  </g>
</svg>
